<?xml version="1.0" encoding="UTF-8"?>
<svg width="120" height="120" viewBox="0 0 120 120" xmlns="http://www.w3.org/2000/svg">
  <!-- Background Circle -->
  <circle cx="60" cy="60" r="55" fill="#1a1a1a" stroke="#ff6b35" stroke-width="3"/>
  
  <!-- Film Strip -->
  <rect x="20" y="35" width="80" height="50" fill="#2d2d2d" rx="6"/>
  
  <!-- Film Strip Holes -->
  <rect x="15" y="42" width="6" height="6" fill="#1a1a1a" rx="1"/>
  <rect x="15" y="52" width="6" height="6" fill="#1a1a1a" rx="1"/>
  <rect x="15" y="62" width="6" height="6" fill="#1a1a1a" rx="1"/>
  <rect x="15" y="72" width="6" height="6" fill="#1a1a1a" rx="1"/>
  
  <rect x="99" y="42" width="6" height="6" fill="#1a1a1a" rx="1"/>
  <rect x="99" y="52" width="6" height="6" fill="#1a1a1a" rx="1"/>
  <rect x="99" y="62" width="6" height="6" fill="#1a1a1a" rx="1"/>
  <rect x="99" y="72" width="6" height="6" fill="#1a1a1a" rx="1"/>
  
  <!-- Movie Screen -->
  <rect x="35" y="45" width="50" height="30" fill="#000000" rx="3"/>
  
  <!-- Play Button -->
  <polygon points="52,58 52,62 58,60" fill="#ff6b35"/>
</svg>
